# xmcd
#
# Track frame offsets:
#	150
#	28957
#	53118
#	76049
#	98550
#	126064
#	144841
#	174371
#	201893
#	226758
#
# Disc length: 3262 seconds
#
# Revision: 0
# Processed by: cddbd v1.5.2PL0 Copyright (c) Steve Scherf et al.
# Submitted via: EasyCDDAExtractor 10.0.1.1
#
DISCID=720cbc0a
DTITLE=Pomoc Duchowa - New Project 2006
DYEAR=2006
DGENRE=Ballad
TTITLE0=3Bog jest miloscia
TTITLE1=Israel
TTITLE2=Jedwabne
TTITLE3=Sprawiedliwosc
TTITLE4=Yeshua
TTITLE5=Pokarm
TTITLE6=Kosciol na wzor Pierwszych chrzescijan
TTITLE7=Dobry pasterz
TTITLE8=Pseudochrzescijanie
TTITLE9=Psalm 2005
EXTD=
EXTT0=
EXTT1=
EXTT2=
EXTT3=
EXTT4=
EXTT5=
EXTT6=
EXTT7=
EXTT8=
EXTT9=
PLAYORDER=
